name processed_emg_signals
nRows=49
nColumns=7
 
endheader
time	RGLTMED	RRF	RADDLONG	RST	RTA	RGM
0.0	0.0158195844448877	0.1696585461865122	0.1830088490224893	0.0075815580970884	0.0071128158621619	0.0318449501545528
0.001	0.0181984421977367	0.1816904264459648	0.1713978986772144	0.0068283828133093	0.0057779400042264	0.0330393507668391
0.002	0.0205828653944324	0.1936578355244006	0.1598867786543089	0.0060756319487714	0.0044417399360053	0.0342344305231846
0.003	0.0229712502163332	0.2055515236308816	0.1484822644378005	0.0053233959092401	0.0031049445547286	0.035429425486373
0.004	0.025361981266489	0.2173623085502995	0.1371909900456487	0.0045717463859615	0.0017682761702754	0.0366235761089467
0.005	0.0277534337448339	0.2290810913279535	0.1260194387617871	0.003820735713169	0.0004324491284599	0.0378161288125239
0.006	0.0301439756307675	0.2406988718272262	0.1149739341992382	0.0030703962596441	0.0009018315170002	0.0390063375715398
0.007	0.0325319698668158	0.252206764107714	0.1040606317159785	0.0023207398567545	0.0022338712763737	0.0401934654965244
0.008	0.0349157765372026	0.2635960115722041	0.0932855102038003	0.0015717572652899	0.0035629874346248	0.0413767864121028
0.009000000000000001	0.037293755035341	0.2748580018320163	0.082654364269046	0.0008234176833312	0.0048885101975853	0.0425555864248809
0.01	0.0396642662143693	0.2859842812421292	0.072172796822705	7.566829731747613e-05	0.006209783771283	0.0437291654764636
0.011	0.04202567451509	0.2969665690603197	0.0618462120958803	0.0006715661216723	0.0075261673728274	0.0448968388770058
0.012	0.0443763500659182	0.3077967711878063	0.0516798090952902	0.0014183835745127	0.0088370361718151	0.0460579388149442
0.013000000000000001	0.046714670749819	0.3184669934521764	0.0416785755121144	0.0021649051417533	0.010141782161658	0.0472118158387994
0.014	0.0490390242336195	0.3289695543966001	0.0318472820959933	0.002911275240871	0.0114398149605279	0.0483578403071767
0.015	0.0513478099555602	0.3392969975423026	0.0221904775042373	0.0036576618316081	0.0127305625418107	0.0494954038032413
0.016	0.0536394410675309	0.349442103093764	0.0127124836344027	0.0044042565681303	0.0140134718940821	0.0506239205100682
0.017	0.0559123463291683	0.3593978990583769	0.0034173914463863	0.0051512748969474	0.0152880096108132	0.0517428285433125
0.018000000000000002	0.0581649719517937	0.3691576717542562	0.0056909427219343	0.005898956099696	0.0165536624102054	0.0528515912376614
0.019	0.0603957833909352	0.3787149756817896	0.0146089003436175	0.006647563280154	0.0178099375857568	0.0539496983835365
0.02	0.0626032670867078	0.3880636427361078	0.02333310339617	0.0073973832949657	0.0190563633883274	0.0550366674106421
0.021	0.0647859321516739	0.3971977907388965	0.0318604165614795	0.0081487266277624	0.0202924893406633	0.0561120445150613
0.022	0.0669423120059643	0.4061118312685181	0.0401879489356358	0.0089019272065289	0.0215178864854558	0.0571754057268274
0.023	0.0690709659594168	0.4148004767674609	0.0483130552535955	0.0096573421642251	0.0227321475681318	0.0582263579150161
0.024	0.0711704807404003	0.4232587469066763	0.0562333366349256	0.0104153515428744	0.0239348871556449	0.0592645397275372
0.025	0.0732394719708444	0.431481974188111	0.0639466408580121	0.0111763579414951	0.0251257416925745	0.0602896224628665
0.026000000000000002	0.0752765855868122	0.4394658087700832	0.0714510621714019	0.0119407861084581	0.0263043694958546	0.0613013108709601
0.027	0.0772804992037929	0.4472062225047536	0.078744940652237	0.0127090824789322	0.0274704506894351	0.062299343880536
0.028	0.0792499234257575	0.4546995121825793	0.0858268611230144	0.0134817146582184	0.0286236870801698	0.0632834952498675
0.029	0.0811836030969168	0.4619423019846715	0.092695651638939	0.0142591708517634	0.0297638019762104	0.0642535741381049
0.03	0.0830803184949911	0.4689315451496848	0.0993503815589553	0.0150419592427235	0.0308905399492453	0.0652094255940954
0.031	0.0849388864647328	0.475664524866457	0.1057903592139765	0.0158306073179595	0.0320036665419168	0.0661509309596347
0.032	0.0867581614903998	0.4821388544069038	0.1120151291860715	0.0166256611434604	0.0331029679218821	0.0670780081841538
0.033	0.0885370367059715	0.4883524765160031	0.1180244692125629	0.0174276845902858	0.0341882504839895	0.0679906120479338
0.034	0.090274444842016	0.4943036620772686	0.1238183867293039	0.018237258512268	0.0352593404021241	0.0688887342911238
0.035	0.0919693591083593	0.4999910080736089	0.1293971150677495	0.0190549798767843	0.0363160831322659	0.0697724036461477
0.036000000000000004	0.093620794011946	0.5054134348648902	0.1347611093209233	0.0198814608500088	0.0373583428683127	0.0706416857716564
0.037	0.0952278061094468	0.5105701828048546	0.1399110418938605	0.0207173278380756	0.0383860019522231	0.0714966830870179
0.038	0.0967894946943123	0.5154608082208041	0.1448477977545498	0.0215632204856875	0.0393989602401339	0.0723375345072096
0.039	0.0983050024179934	0.5200851787795862	0.1495724694016423	0.0224197906337105	0.0403971344262901	0.0731644150790027
0.04	0.0997735158451441	0.5244434682631123	0.1540863515653652	0.0232877012373894	0.0413804573268612	0.0739775355204399
0.041	0.1011942659427531	0.5285361507765213	0.158390935658131	0.0241676252468807	0.0423488771260541	0.0747771416666803
0.042	0.1025665285035068	0.532363994412339	0.162487903991303	0.0250602444518289	0.043302356587226	0.075563513826225
0.043000000000000003	0.1038896245040666	0.5359280543948891	0.1663791237744528	0.0259662482918322	0.0442408722319887	0.0763369660522689
0.044	0.1051629203993028	0.5392296657308293	0.1700666409132021	0.0268863326346461	0.0451644134904707	0.0770978453344115
0.045	0.1063858283538643	0.542270435393679	0.1735526736215153	0.0278211985241183	0.0460729818259347	0.0778465307162797
0.046	0.1075578064125838	0.5450522340720557	0.1768396058640965	0.0287715508998918	0.0469665898369525	0.0785834323446891
0.047	0.1086783586113578	0.5475771875127019	0.179929980644433	0.0297380972910317	0.0478452603403117	0.0793089904559293
0.048	0.109747035030211	0.5498476674899968	0.1828264931539021	0.0307215464858015	0.048709025437746	0.080023674304678
